<svg xmlns="http://www.w3.org/2000/svg" width="256" height="256" viewBox="0 0 100 100"><rect width="100" height="100" rx="20" fill="#fac049"></rect><path fill="#4984fa" d="M62.69 84.52Q55.67 84.52 55.67 78.48L55.67 78.48Q55.67 76.50 56.26 73.94Q56.84 71.38 57.92 67.33L57.92 67.33Q59.18 63.09 59.81 60.13Q60.44 57.16 60.44 54.81L60.44 54.81Q60.44 48.70 55.04 48.70L55.04 48.70Q53.60 48.70 52.07 49.05L52.07 49.05L44.87 82.98L31.91 82.98L44.15 25.75L57.47 23.95L53.06 44.73L53.78 44.73Q57.29 44.73 60.26 42.30Q63.23 39.88 64.90 36.23Q66.56 32.59 66.56 29.08L66.56 29.08Q66.56 24.94 64.09 22.28Q61.61 19.63 56.66 19.63L56.66 19.63Q49.37 19.63 43.88 22.23Q38.39 24.84 35.38 29.80Q32.36 34.75 32.36 41.49L32.36 41.49Q32.36 44.83 32.99 46.13Q33.62 47.44 33.62 47.62L33.62 47.62Q28.76 47.62 26.38 45.59Q23.99 43.56 23.99 38.88L23.99 38.88Q23.99 33.13 28.72 27.68Q33.44 22.23 40.82 18.86Q48.20 15.48 55.58 15.48L55.58 15.48Q62.33 15.48 66.92 17.47Q71.51 19.45 73.76 22.73Q76.01 26.02 76.01 29.88L76.01 29.88Q76.01 34.12 73.40 38.34Q70.79 42.58 66.29 45.27L66.29 45.27Q69.71 46.27 71.11 48.56Q72.50 50.86 72.50 54.28L72.50 54.28Q72.50 56.89 71.87 59.81Q71.24 62.73 70.07 67.06L70.07 67.06Q69.35 69.84 68.72 72.55Q68.09 75.25 68.09 77.05L68.09 77.05Q68.09 79.11 69.03 80.73Q69.98 82.36 71.60 82.98L71.60 82.98Q66.11 84.52 62.69 84.52L62.69 84.52Z"></path></svg>